<svg viewBox="0 0 24 24" xmlns="http://www.w3.org/2000/svg"><path d="M23.5 6h-2.551c-.245-1.692-1.691-3-3.449-3h-1.785c-.245-1.692-1.691-3-3.449-3s-3.205 1.308-3.45 3H6.5C4.742 3 3.296 4.308 3.051 6H.5a.5.5 0 000 1h3v15.023A1.98 1.98 0 005.477 24h13.047a1.98 1.98 0 001.977-1.977V7h3a.5.5 0 00-.001-1zM12.266 1c1.208 0 2.217.86 2.45 2h-4.9c.232-1.14 1.242-2 2.45-2zM19.5 22.023a.978.978 0 01-.977.977H5.477a.978.978 0 01-.977-.977V7h15v15.023zM4.05 6c.233-1.14 1.242-2 2.45-2h11c1.208 0 2.217.86 2.45 2H4.05z"/><path d="M8 20.5a.5.5 0 00.5-.5V10a.5.5 0 00-1 0v10a.5.5 0 00.5.5zm4 0a.5.5 0 00.5-.5V10a.5.5 0 00-1 0v10a.5.5 0 00.5.5zm4 0a.5.5 0 00.5-.5V10a.5.5 0 00-1 0v10a.5.5 0 00.5.5z"/></svg>